<svg id="Layer_1" data-name="Layer 1" xmlns="http://www.w3.org/2000/svg" viewBox="0 0 864.96 834.85"><defs><style>.cls-1{fill:#e85252;}</style></defs><path class="cls-1" d="M2360.91,1646.92H2333.8V1416.55a13.55,13.55,0,0,1,3.95-9.56,235.19,235.19,0,0,0,68.73-166.84c0-130.23-105.49-236.19-235.14-236.19s-235.16,106-235.16,236.19c0,3.61.14,7.18.28,10.77a13.54,13.54,0,0,1-1.79,7.28l-68.73,119.54h34.35a13.55,13.55,0,0,1,13.55,13.55v98.61a53.7,53.7,0,0,0,53.49,53.8h106.21a13.56,13.56,0,0,1,13.56,13.55v89.67H2060v-76.11h-92.66c-44.44,0-80.6-36.3-80.6-80.91v-85.06h-44.22a13.56,13.56,0,0,1-11.75-20.31l78.47-136.46c-.09-2.64-.15-5.27-.15-7.92,0-145.18,117.65-263.3,262.27-263.3s262.24,118.11,262.24,263.3a262,262,0,0,1-72.68,181.9v224.87Z" transform="translate(-1738.02 -812.08)"/><path class="cls-1" d="M2169.58,1259.48a13.62,13.62,0,0,1-6.74-1.8L2064,1201a13.55,13.55,0,0,1,0-23.47l99.45-57.68a13.58,13.58,0,0,1,13.55,0l98.85,56.73a13.55,13.55,0,0,1,.06,23.48l-99.5,57.66a13.63,13.63,0,0,1-6.8,1.83Zm-71.7-70.33,71.67,41.13,72.38-42-71.68-41.14Z" transform="translate(-1738.02 -812.08)"/><path class="cls-1" d="M2170.74,1374.77a13.53,13.53,0,0,1-13.55-13.41L2156,1246.05a13.55,13.55,0,0,1,6.76-11.86l99.49-57.66a13.56,13.56,0,0,1,20.35,11.59l1.15,115.28a13.56,13.56,0,0,1-6.75,11.86L2177.54,1373A13.65,13.65,0,0,1,2170.74,1374.77Zm12.47-121.09.85,84.15,72.52-42.06-.83-84.13Z" transform="translate(-1738.02 -812.08)"/><path class="cls-1" d="M2170.87,1374.77h-.13a13.55,13.55,0,0,1-6.75-1.8l-98.84-56.72a13.52,13.52,0,0,1-6.8-11.62l-1.15-115.27a13.57,13.57,0,0,1,20.3-11.9l98.82,56.71a13.55,13.55,0,0,1,6.81,11.62l1.14,113.38a13.87,13.87,0,0,1,.15,2.06,13.53,13.53,0,0,1-13.55,13.54Zm-85.49-78.17,71.57,41.08-.84-83.86-71.57-41.06Z" transform="translate(-1738.02 -812.08)"/><path class="cls-1" d="M2159,1444.89a199.61,199.61,0,0,1-28.59-3.76l5.47-26.55a172.56,172.56,0,0,0,24.69,3.24Zm28.82-.42-2.33-27a169.56,169.56,0,0,0,24.56-4l6.27,26.36A197.42,197.42,0,0,1,2187.78,1444.47Zm-85.2-11.25a197.11,197.11,0,0,1-26.31-11.9l12.94-23.81a170.92,170.92,0,0,0,22.69,10.26Zm141.21-2.06L2233.74,1406a170.07,170.07,0,0,0,22.34-10.9l13.64,23.43A198.31,198.31,0,0,1,2243.79,1431.16ZM2052,1405.71a200.14,200.14,0,0,1-21.74-18.93l19.22-19.11a172.54,172.54,0,0,0,18.8,16.36Zm241.53-3.48-16.9-21.19a174.59,174.59,0,0,0,18.32-16.89l19.77,18.54A200.08,200.08,0,0,1,2293.52,1402.23Zm-282.07-37.31a201.67,201.67,0,0,1-15.43-24.34l23.88-12.82a170.93,170.93,0,0,0,13.34,21Zm321.43-4.64-22.24-15.5a174.67,174.67,0,0,0,12.74-21.42l24.23,12.12A200.13,200.13,0,0,1,2332.88,1360.28Zm-348.62-46a199.94,199.94,0,0,1-7.81-27.78L2003,1281a171.2,171.2,0,0,0,6.74,24Zm374.35-5.46-25.74-8.46a171,171,0,0,0,6-24.16l26.71,4.65A196.91,196.91,0,0,1,2358.61,1308.78Zm-385.86-50.91q-.32-5.7-.33-11.48c0-5.76.25-11.58.74-17.31l27,2.32c-.43,5-.64,10-.64,15,0,3.33.1,6.65.28,10Zm395.74-5.71-27.1-.81c.05-1.64.08-3.3.08-5a178.52,178.52,0,0,0-1.15-19.92l26.93-3.09a204.85,204.85,0,0,1,1.32,23C2368.58,1248.31,2368.55,1250.24,2368.49,1252.16Zm-364.4-45.36-26.39-6.19a199.46,199.46,0,0,1,8.63-27.55l25.21,10A170.11,170.11,0,0,0,2004.09,1206.8Zm331.62-4.81a170.76,170.76,0,0,0-8.14-23.53l24.92-10.7a201,201,0,0,1,9.42,27.27Zm-313.35-41.41-23.49-13.52a199.35,199.35,0,0,1,16.15-23.89l21.3,16.76A173.47,173.47,0,0,0,2022.36,1160.58Zm293.76-4.23a172.47,172.47,0,0,0-14.53-20.22l20.81-17.37a199.92,199.92,0,0,1,16.82,23.42Zm-263-34.83-18.67-19.66a199.2,199.2,0,0,1,22.3-18.28l15.63,22.14A173.58,173.58,0,0,0,2053.11,1121.52Zm231.17-3.32a172.82,172.82,0,0,0-19.7-15.24l15-22.6a201.51,201.51,0,0,1,22.82,17.64Zm-190.58-25.3-12.24-24.19a196.74,196.74,0,0,1,26.64-11.1l8.56,25.71A169.87,169.87,0,0,0,2093.7,1092.9Zm149.18-2.16a170.29,170.29,0,0,0-23.25-8.9l7.81-26a197.92,197.92,0,0,1,27,10.33Zm-102.1-13.51-4.69-26.69a196.72,196.72,0,0,1,28.7-2.92l.77,27.1A171.12,171.12,0,0,0,2140.78,1077.23Zm54.55-.78a171.19,171.19,0,0,0-24.83-1.81v-27.1a199.81,199.81,0,0,1,28.75,2.08Z" transform="translate(-1738.02 -812.08)"/><path class="cls-1" d="M2231.37,906.36l-55.67-55.88L2120,906.36l-19.19-19.13,74.88-75.15,74.88,75.15Z" transform="translate(-1738.02 -812.08)"/><path class="cls-1" d="M2162.15,844.26h27.11V955.13h-27.11Z" transform="translate(-1738.02 -812.08)"/><path class="cls-1" d="M1895.4,1041.84h-27.11l0-106.22,105.81-.05,0,27.12-78.74,0Z" transform="translate(-1738.02 -812.08)"/><path class="cls-1" d="M1900.62,948.77l78.08,78.37-19.2,19.13-78.08-78.37Z" transform="translate(-1738.02 -812.08)"/><path class="cls-1" d="M1812.74,1316.26,1738,1241.15l74.72-75.11,19.21,19.11-55.7,56,55.7,56Z" transform="translate(-1738.02 -812.08)"/><path class="cls-1" d="M1770,1227.58h110.42v27.12H1770Z" transform="translate(-1738.02 -812.08)"/><path class="cls-1" d="M2528.22,1326.72,2509,1307.6l55.72-56-55.72-56,19.21-19.12,74.76,75.11Z" transform="translate(-1738.02 -812.08)"/><path class="cls-1" d="M2460.51,1238.08H2571v27.1H2460.51Z" transform="translate(-1738.02 -812.08)"/><path class="cls-1" d="M2452.94,1049.23l0-79.11-78.74,0V943L2480,943l0,106.2Z" transform="translate(-1738.02 -812.08)"/><path class="cls-1" d="M2447.76,956.15,2467,975.28l-78.07,78.4-19.21-19.12Z" transform="translate(-1738.02 -812.08)"/></svg>