<svg id="Layer_1" data-name="Layer 1" xmlns="http://www.w3.org/2000/svg" viewBox="0 0 265.82 279.07"><defs><style>.cls-1,.cls-2{fill:none;stroke-miterlimit:10;}.cls-1{stroke:#ed2024;}.cls-2{stroke:#000;stroke-width:2px;}</style></defs><polygon class="cls-1" points="194.5 220.83 201.28 234.18 198.15 240.27 192.26 242.97 189.02 241.1 189.02 191.47 210.48 179.07 210.5 179.06 210.56 179.03 215.8 176 215.92 176.26 215.95 176.34 216.11 176.69 219.52 184.21 219.56 184.29 219.62 184.43 219.79 184.79 222.23 190.15 218.92 208.7 218.92 208.72 218.91 208.78 210.84 212.77 195.92 220.13 195.8 220.19 195.79 220.19 195.66 220.25 194.5 220.83"/><polygon class="cls-1" points="253.89 197.83 254.98 199.95 254.87 204.65 254.87 204.66 254.74 210.96 247.38 224.89 247.29 225.08 237.26 244.08 232 241.04 232 208.89 232.24 208.82 238.7 207.15 244.77 203.66 252.06 194.25 253.54 197.15 253.89 197.83"/><polygon class="cls-1" points="17 45.15 17 92.19 6.55 98.23 1.05 86.15 3.36 75.39 3.39 75.25 3.4 75.22 6.34 61.57 6.39 61.29 6.41 61.2 6.47 60.95 7.07 58.16 16.8 45.41 16.84 45.36 17 45.15"/><polygon class="cls-1" points="38.54 29.89 38.54 54.93 17.06 67.34 17.06 67.35 17.04 67.35 17 67.36 16.96 67.39 3.4 75.22 6.34 61.57 6.39 61.29 6.41 61.2 6.47 60.95 7.07 58.16 16.8 45.41 16.84 45.36 17 45.15 17.06 45.07 17.06 42.54 20.52 40.55 20.65 40.38 26.45 32.76 37.74 30.07 38.2 29.97 38.48 29.9 38.48 29.9 38.54 29.89"/><polygon class="cls-1" points="124.52 26.55 124.52 54.93 103.04 67.34 103.04 67.35 103.02 67.35 81.53 79.75 60.12 67.39 60.03 67.35 60 67.32 38.54 54.93 38.54 29.89 39.06 29.76 39.12 29.75 39.12 29.73 40.06 16.27 56.82 2.84 59.93 4.41 59.98 4.44 60.02 4.46 66.54 7.73 78.96 8.04 81.53 7.5 81.54 7.5 103 2.96 103.02 2.96 111.58 1.15 116.59 12.74 105.37 18.8 105.18 18.9 106.36 19.37 124.52 26.55"/><polygon class="cls-1" points="81.53 7.5 81.53 55.02 60.12 67.39 60.09 67.4 60 67.46 38.54 79.85 17.06 67.44 17 67.41 16.99 67.4 16.96 67.39 6.39 61.29 6.41 61.2 6.47 60.95 7.07 58.16 16.8 45.41 16.84 45.36 17 45.15 17.06 45.07 17.06 42.54 20.52 40.55 20.65 40.38 26.45 32.76 37.74 30.07 38.2 29.97 38.48 29.9 38.48 29.9 38.54 29.89 39.06 29.76 39.12 29.75 39.12 29.73 40.06 16.27 56.82 2.84 59.93 4.41 59.98 4.44 60.02 4.46 66.54 7.73 78.96 8.04 81.53 7.5"/><polygon class="cls-1" points="172.86 26.99 167.47 30.11 167.43 30.13 167.38 30.16 145.99 42.51 124.55 30.13 124.52 30.11 103 17.68 103 2.96 103.02 2.96 111.58 1.15 116.59 12.74 105.37 18.8 105.18 18.9 106.36 19.37 124.52 26.55 124.63 26.59 127.89 27.88 127.91 27.89 128.21 28.01 128.22 28.01 128.71 28.2 140.56 32.89 146.1 19.16 146.33 18.59 147.66 19.09 147.67 19.09 149.56 19.81 145.99 17.75 146.02 17.73 149.74 19.88 149.77 19.89 151.45 20.53 151.46 20.53 167.38 26.55 167.74 26.68 168.41 26.93 172.52 26.99 172.86 26.99"/><polygon class="cls-1" points="211.27 79.32 210.5 79.77 210.37 79.85 189.02 67.52 188.87 67.43 167.4 55.03 167.38 55.02 167.38 26.55 167.74 26.68 168.41 26.93 172.52 26.99 172.86 26.99 196.32 27.3 196.17 38.2 196.17 38.41 196.01 49.19 201.54 60.13 201.58 60.22 201.69 60.42 210.83 78.48 211.22 79.24 211.27 79.32"/><polygon class="cls-1" points="128.21 28.01 124.55 30.13 124.52 30.15 124.51 30.16 124.5 30.16 103.04 42.54 103 42.56 81.53 30.16 81.48 30.14 60.02 17.75 60.02 4.46 66.54 7.73 78.96 8.04 81.53 7.5 81.54 7.5 103 2.96 103.02 2.96 111.58 1.15 116.59 12.74 105.37 18.8 105.18 18.9 106.36 19.37 124.52 26.55 124.63 26.59 127.89 27.88 127.91 27.89 128.21 28.01"/><polygon class="cls-1" points="196.32 27.3 196.17 38.2 196.17 38.41 189.02 42.54 188.98 42.56 167.43 30.13 167.38 30.1 149.59 19.82 149.56 19.81 145.99 17.75 146.02 17.73 149.74 19.88 149.77 19.89 151.45 20.53 151.46 20.53 167.38 26.55 167.74 26.68 168.41 26.93 172.52 26.99 172.86 26.99 196.32 27.3"/><polygon class="cls-1" points="167.5 79.77 167.5 129.41 146.02 141.81 146 141.82 124.52 154.23 124.5 154.22 103.04 141.82 103.01 141.81 99.6 139.84 99.61 139.81 101.54 130.3 84.23 130.3 82.29 122.28 81.59 122.39 81.54 122.4 81.53 122.4 81.53 79.77 103.04 67.36 103.04 67.35 124.52 54.95 145.97 67.34 146.03 67.38 167.5 79.77"/><polygon class="cls-1" points="253.48 101.85 253.48 126.09 249.51 131.7 249.51 131.71 232.1 141.75 232 141.81 231.98 141.82 210.5 154.23 210.48 154.22 189.04 141.84 189.03 141.83 189.02 141.83 189.02 141.82 167.5 129.41 167.5 79.77 188.87 67.43 189 67.36 189.02 67.36 201.54 60.13 201.58 60.22 201.69 60.42 210.83 78.48 211.22 79.24 211.27 79.32 211.27 79.34 211.89 80.56 226.35 95.46 226.55 95.67 238.67 108.16 250.74 103.01 250.87 102.97 253.48 101.85"/><polygon class="cls-1" points="167.52 54.96 124.53 79.78 124.53 129.42 167.52 154.24 210.51 129.42 210.51 79.78 167.52 54.96"/><polygon class="cls-1" points="264.45 97.18 264.19 98.42 264.11 98.86 261.97 109.27 261.93 109.47 260.56 116.12 253.89 125.52 253.48 126.09 249.51 131.7 249.51 131.71 248.95 132.48 244.57 138.64 234.93 143.37 234.81 143.44 234.79 143.45 232.1 141.9 232 141.84 231.98 141.82 210.54 129.44 210.51 129.43 210.51 79.78 211.27 79.34 211.89 80.56 226.35 95.46 226.55 95.67 238.67 108.16 250.74 103.01 250.87 102.97 253.48 101.85 253.89 101.68 264.45 97.18"/><polygon class="cls-1" points="264.19 98.42 264.11 98.86 261.97 109.27 261.93 109.47 260.56 116.12 253.89 125.52 253.48 126.09 249.51 131.7 249.51 131.71 248.95 132.48 244.57 138.64 234.93 143.37 234.81 143.44 234.79 143.45 233.84 143.91 232.28 145.88 232.24 145.92 232.1 146.09 232.1 116.95 253.48 104.6 253.49 104.6 264.19 98.42"/><polygon class="cls-1" points="234.81 143.44 234.79 143.45 233.84 143.91 232.28 145.88 232.24 145.92 232.1 146.09 232 146.22 213.08 170.01 215.78 175.95 215.8 176 215.92 176.26 215.95 176.34 216.11 176.69 219.52 184.21 219.56 184.29 219.62 184.43 219.79 184.79 222.23 190.15 218.92 208.7 218.92 208.72 218.91 208.78 210.84 212.77 195.92 220.13 195.8 220.19 195.79 220.19 189.03 216.28 189.02 216.28 188.98 216.25 188.97 216.25 167.56 203.89 167.56 154.25 189.02 141.86 189.04 141.84 189.07 141.83 210.54 129.44 210.55 129.44 232 141.81 232.1 141.88 234.81 143.44"/><polygon class="cls-1" points="252.06 194.25 253.54 197.15 253.54 203.89 232.07 216.29 232 216.33 229.08 218.01 229.06 217.95 228.54 216.47 229.11 214.58 229.13 214.51 230.71 209.22 232 208.89 232.24 208.82 238.7 207.15 244.77 203.66 252.06 194.25"/><polygon class="cls-1" points="103.04 42.54 103.04 92.19 81.53 104.6 81.52 104.61 60.04 117.01 38.54 104.59 38.52 104.58 17.06 92.19 17.06 42.54 20.52 40.55 38.52 30.16 38.54 30.15 60.02 17.75 60.04 17.73 81.52 30.12 81.53 30.13 103.04 42.54"/><polygon class="cls-1" points="189.02 42.54 189.02 92.19 167.51 104.6 167.5 104.6 146.02 117.01 124.53 104.6 124.52 104.59 124.5 104.58 103.04 92.19 103.04 42.54 124.5 30.16 124.51 30.16 124.52 30.15 124.55 30.13 128.21 28.01 128.22 28.01 128.71 28.2 140.56 32.89 146.1 19.16 146.33 18.59 147.66 19.09 147.67 19.09 149.56 19.81 145.99 17.75 146.02 17.73 149.74 19.88 149.77 19.89 167.38 30.06 167.47 30.11 189.02 42.54"/><polygon class="cls-1" points="189.02 117.02 189.02 166.65 167.58 179.03 167.56 179.04 167.52 179.06 146.02 191.48 124.52 179.06 124.5 179.05 124.47 179.03 112.38 172.05 111.08 166.63 103.04 157.25 103.04 117.01 124.52 104.61 124.53 104.6 124.59 104.57 146.02 92.2 167.46 104.57 167.5 104.6 167.51 104.6 189.02 117.02"/><polygon class="cls-1" points="261.93 109.47 260.56 116.12 253.89 125.52 253.48 126.09 249.51 131.7 249.51 131.71 248.95 132.48 244.57 138.64 234.93 143.37 234.81 143.44 234.79 143.45 233.84 143.91 232.28 145.88 232.24 145.92 232.1 146.09 232 146.22 213.08 170.01 215.78 175.95 215.8 176 215.92 176.26 215.95 176.34 216.11 176.69 219.52 184.21 219.56 184.29 210.5 179.06 210.48 179.05 210.45 179.03 189.02 166.65 189.02 117.01 210.51 104.6 210.56 104.57 226.35 95.46 226.55 95.67 238.67 108.16 250.74 103.01 253.48 104.6 253.49 104.6 261.93 109.47"/><polygon class="cls-1" points="189.02 191.47 189.02 241.1 167.57 253.49 167.54 253.5 167.54 253.47 146.02 241.04 146.02 216.26 124.52 228.68 124.52 253.51 123.01 252.63 120.11 248.67 119.23 229.1 115.77 224.3 114.95 223.17 108.1 213.64 107.96 213.44 107.93 213.41 107 212.1 110.83 196.86 116.09 187.45 115.5 185.01 115.35 184.36 124.5 179.07 124.52 179.06 146.02 166.64 167.47 179.03 167.52 179.06 167.56 179.08 189.02 191.47"/><polygon class="cls-1" points="146.02 265.92 146.02 277.24 137.8 278.03 131.03 272.95 131.03 263.6 124.66 254.9 124.52 254.7 124.3 254.4 123.99 253.97 123.91 253.87 123.01 252.63 120.11 248.67 119.23 229.1 115.77 224.3 114.95 223.17 124.52 228.69 124.52 253.51 124.53 253.51 146.02 265.92"/><polygon class="cls-1" points="201.28 234.18 198.15 240.27 192.26 242.97 191.6 243.28 186.28 245.72 186.04 253.7 179.13 260.16 179.05 260.23 178.63 260.63 167.77 270.78 167.71 270.84 167.54 271 162.58 275.65 146.07 277.24 146.02 277.24 137.8 278.03 131.03 272.95 131.03 263.6 124.66 254.9 124.52 254.7 124.52 253.51 124.53 253.51 146.02 265.92 167.47 253.54 167.54 253.5 167.54 253.47 146.02 241.04 146.02 216.26 146.03 216.25 167.5 203.85 167.56 203.88 188.97 216.25 188.98 216.25 189.02 216.27 189.02 216.28 189.03 216.28 195.79 220.19 195.66 220.25 194.5 220.83 201.28 234.18"/><polygon class="cls-1" points="254.87 204.65 254.87 204.66 254.74 210.96 247.38 224.89 247.29 225.08 237.26 244.08 237.21 244.16 236.86 244.83 230.18 249.16 227.1 244.81 226.62 244.15 223.92 240.32 224.22 236.68 224.77 229.78 231.78 225.74 229.2 218.37 229.08 218.01 229.06 217.95 232 216.26 232.01 216.25 253.48 203.85 253.54 203.88 253.54 203.89 254.87 204.65"/><polygon class="cls-1" points="222.23 190.15 218.92 208.7 218.92 208.72 218.91 208.78 210.84 212.77 195.92 220.13 195.8 220.19 195.79 220.19 195.66 220.25 194.5 220.83 201.28 234.18 198.15 240.27 192.26 242.97 191.6 243.28 186.28 245.72 186.04 253.7 179.13 260.16 167.57 253.49 167.54 253.47 146.02 241.04 146.02 191.41 167.47 179.03 167.52 179 167.56 178.97 189.02 166.59 210.48 178.98 210.51 179 210.56 179.03 219.52 184.21 219.56 184.29 219.62 184.43 219.79 184.79 222.23 190.15"/><polygon class="cls-1" points="232 208.89 232 241.04 226.62 244.15 223.92 240.32 224.22 236.68 224.77 229.78 231.78 225.74 229.2 218.37 229.08 218.01 229.06 217.95 228.54 216.47 229.11 214.58 229.13 214.51 230.71 209.22 232 208.89"/><polygon class="cls-1" points="167.47 253.54 146.02 265.92 124.53 253.51 145.97 241.13 146.02 241.16 167.47 253.54"/><polygon class="cls-1" points="218.92 208.7 218.92 208.72 218.91 208.78 210.84 212.77 195.92 220.13 195.8 220.19 195.79 220.19 195.66 220.25 194.5 220.83 201.28 234.18 198.15 240.27 192.26 242.97 191.6 243.28 186.28 245.72 186.04 253.7 179.13 260.16 179.05 260.23 178.63 260.63 167.77 270.78 167.71 270.84 167.54 271 167.54 228.68 189.02 216.28 189.03 216.28 210.54 203.85 218.92 208.7"/><polygon class="cls-1" points="247.29 225.08 237.26 244.08 237.21 244.16 236.86 244.83 230.18 249.16 227.1 244.81 226.62 244.15 223.92 240.32 224.22 236.68 224.77 229.78 231.78 225.74 229.2 218.37 229.08 218.01 229.06 217.95 228.54 216.47 229.11 214.58 232 216.25 232.01 216.25 232.07 216.29 247.29 225.08"/><polygon class="cls-1" points="38.54 79.75 38.54 127.76 38.51 127.76 30.78 127.67 18.37 116.58 18.13 116.36 12.53 111.36 6.67 98.48 6.58 98.29 6.55 98.23 1.05 86.15 3.36 75.39 3.39 75.25 3.4 75.22 6.34 61.57 6.39 61.29 6.41 61.2 17 67.32 17.04 67.35 17.06 67.35 17.08 67.36 38.54 79.75"/><polygon class="cls-1" points="124.5 154.19 124.5 203.83 107.93 213.41 107 212.1 110.83 196.86 116.09 187.45 115.5 185.01 115.35 184.36 115.33 184.31 112.57 172.83 112.45 172.33 112.38 172.05 111.08 166.63 103.04 157.25 103.03 157.24 97.41 150.69 98.64 144.61 98.71 144.29 99.56 140.03 99.6 139.84 99.61 139.81 103.04 141.79 124.5 154.19"/><polygon class="cls-1" points="167.49 129.37 124.5 154.19 124.5 203.83 167.49 228.65 210.48 203.83 210.48 154.19 167.49 129.37"/><polygon class="cls-1" points="146.02 116.95 146.02 166.59 124.5 179.01 124.47 179.03 115.33 184.31 112.57 172.83 112.45 172.33 112.38 172.05 111.08 166.63 103.04 157.25 103.03 157.24 97.41 150.69 98.64 144.61 98.71 144.29 99.56 140.03 99.6 139.84 99.61 139.81 101.54 130.3 84.23 130.3 82.29 122.28 81.59 122.39 81.54 122.4 81.53 122.4 60.04 125.83 60.04 116.95 81.47 104.58 81.53 104.55 103.04 92.13 124.52 104.54 124.53 104.55 124.55 104.56 124.59 104.57 146.02 116.95"/><polygon class="cls-1" points="232 116.95 232 146.22 213.08 170.01 215.78 175.95 210.51 179 210.48 179.01 210.45 179.03 189.02 191.41 167.58 179.03 167.56 179.02 167.52 179 146.02 166.59 146.02 116.95 167.46 104.57 167.5 104.55 189.02 92.13 210.51 104.55 210.56 104.57 232 116.95"/><polygon class="cls-1" points="124.52 79.75 124.52 129.4 103.04 141.79 103.01 141.81 98.71 144.29 99.56 140.03 99.6 139.84 99.61 139.81 101.54 130.3 84.23 130.3 82.29 122.28 81.59 122.39 81.54 122.4 81.53 122.4 60.04 125.83 59.89 125.86 47.41 127.86 38.54 127.76 38.54 79.75 60 67.36 60.01 67.36 60.03 67.35 81.53 54.93 103.02 67.35 103.04 67.35 103.04 67.36 124.52 79.75"/><polygon class="cls-1" points="60 42.54 60 92.19 38.54 104.57 38.52 104.58 18.13 116.36 12.53 111.36 6.67 98.48 6.58 98.29 6.55 98.23 1.05 86.15 3.36 75.39 3.39 75.25 3.4 75.22 6.34 61.57 6.39 61.29 6.41 61.2 6.47 60.95 7.07 58.16 16.8 45.41 16.84 45.36 17 45.15 17.06 45.07 17.06 42.54 20.52 40.55 20.65 40.38 26.45 32.76 37.74 30.07 38.2 29.97 38.52 30.16 38.54 30.16 60 42.54"/><polygon class="cls-1" points="102.98 17.73 59.99 42.55 59.99 92.19 102.98 117.01 145.97 92.19 145.97 42.55 102.98 17.73"/><polygon class="cls-2" points="186.04 253.7 162.61 275.68 137.8 278.03 131.03 272.92 131.03 263.57 120.11 248.67 119.23 229.1 107 212.05 110.83 196.74 116.09 187.45 111.08 166.63 97.41 150.69 101.54 130.3 84.23 130.3 82.3 122.33 47.44 127.86 30.77 127.67 12.53 111.36 1.05 86.1 7.06 58.08 26.45 32.76 38.99 29.89 40.06 16.27 56.82 2.84 66.54 7.73 78.96 8.04 111.58 1.15 116.59 12.74 105.37 18.8 140.56 32.89 146.33 18.59 167.74 26.68 196.32 27.3 196.01 49.19 211.89 80.56 238.67 108.16 264.45 97.18 260.56 116.12 244.57 138.64 233.84 143.91 213.08 170.01 222.23 190.15 218.92 208.7 194.5 220.83 201.28 234.18 198.15 240.27 186.28 245.72 186.04 253.7"/><polygon class="cls-2" points="236.86 244.83 230.18 249.16 223.92 240.32 224.77 229.78 231.78 225.74 228.54 216.47 230.71 209.22 238.7 207.15 244.77 203.66 252.06 194.25 254.98 199.95 254.74 210.96 247.38 224.89 236.86 244.83"/></svg>