<?xml version="1.0" encoding="UTF-8"?>
<svg id="Layer_1" data-name="Layer 1" xmlns="http://www.w3.org/2000/svg" viewBox="0 0 447.38 132.56">
  <defs>
    <style>
      .cls-1, .cls-2, .cls-3, .cls-4 {
        fill: #fff;
      }

      .cls-2 {
        stroke-width: 1.64px;
      }

      .cls-2, .cls-3, .cls-4 {
        stroke: #fff;
        stroke-miterlimit: 10;
      }

      .cls-4 {
        stroke-width: 1.35px;
      }
    </style>
  </defs>
  <g>
    <circle class="cls-3" cx="331.86" cy="27.38" r="2.94"/>
    <circle class="cls-3" cx="332.3" cy="26.86" r="2.94"/>
    <path class="cls-3" d="m244.16,8.25c-1.62,0-2.94,1.31-2.94,2.94v12.73h-17.66l-5.85,5.84v17.54l5.94,5.94h17.51l.05-.05,5.83-5.83.05-.05V11.19c0-1.63-1.31-2.94-2.94-2.94Zm-2.94,36.63l-2.48,2.49h-12.65l-2.5-2.5v-12.67l2.4-2.4h15.23v15.08Z"/>
    <path class="cls-3" d="m284.31,41.55v-11.75l-5.88-5.88h-17.67l-5.84,5.84v17.54l.07.07,5.81,5.8.08.08h20.49c1.63,0,2.94-1.31,2.94-2.94s-1.31-2.94-2.94-2.94h-18.06l-2.51-2.51v-3.31h23.5Zm-23.5-9.36l2.39-2.39h12.8l2.44,2.44v3.44h-17.63v-3.49Z"/>
    <path class="cls-4" d="m335.24,35.64v14.66c0,1.62-1.31,2.94-2.94,2.94s-2.94-1.32-2.94-2.94v-14.66c0-1.63,1.32-2.94,2.94-2.94s2.94,1.31,2.94,2.94Z"/>
    <path class="cls-3" d="m372.45,26.86c0,1.63-1.31,2.94-2.94,2.94h-20.57v20.57c0,1.58-1.22,2.85-2.78,2.93h-.3c-1.55-.07-2.79-1.35-2.79-2.93V14.15l.03-.03,5.85-5.85.03-.03h20.54c1.63,0,2.94,1.31,2.94,2.94s-1.31,2.94-2.94,2.94h-18.1l-2.47,2.47v7.33h20.57c1.63,0,2.94,1.31,2.94,2.94Z"/>
    <path class="cls-3" d="m409.67,41.55v-11.67l-.08-.08-5.8-5.79-.09-.09h-17.39l-.15.15-5.73,5.73-.15.15v16.9l.57.57,5.31,5.32.56.56h20.01c1.63,0,2.94-1.31,2.94-2.94s-1.31-2.94-2.94-2.94h-17.57l-3-3v-2.87h23.5Zm-23.5-9.17l2.59-2.59h12.53l2.52,2.52v3.36h-17.63v-3.29Z"/>
    <path class="cls-3" d="m446.88,29.62v3.11c0,1.42-1,2.6-2.32,2.88-.21.04-.41.06-.62.06-1.62,0-2.94-1.31-2.94-2.94v-.68l-2.25-2.26h-7.03l-5.88,5.88-2.47,2.47v12.22c0,1.42-1.01,2.6-2.34,2.88-.15.03-.29.05-.44.05h-.3c-.15,0-.3-.02-.44-.05-1.34-.27-2.35-1.46-2.35-2.88v-23.5c0-1.63,1.32-2.94,2.94-2.94s2.94,1.31,2.94,2.94v2.96l.02-.02,5.89-5.88h11.9l5.7,5.7Z"/>
    <path class="cls-3" d="m321.53,50.35h0c0,.11,0,.21-.02.3,0,.05,0,.1,0,.14,0,.02,0,.03,0,.05,0,0,0,.02,0,.03,0,.02,0,.04,0,.06,0,.05-.02.1-.03.14,0,.04-.02.08-.03.11v.03s0,.02,0,.02c-.04.13-.09.25-.15.37-.02.04-.04.09-.06.13,0,0,0,0,0,.02-.05.09-.1.17-.16.25-.03.04-.06.08-.08.12h0s-.06.08-.08.11c-.13.15-.25.27-.4.4-.04.03-.07.06-.11.09-.04.02-.08.05-.12.08-.08.05-.16.1-.24.15-.05.03-.1.06-.16.08-.07.04-.14.07-.22.09-.08.03-.15.06-.23.08-.02,0-.05,0-.07.02h0s-.04,0-.06,0c0,0-.02,0-.02,0-.02,0-.03,0-.05,0,0,0-.03,0-.04,0-.03,0-.06,0-.09,0,0,0-.02,0-.04,0-.05,0-.09,0-.13,0-.1,0-.21.02-.3.02h-20.53l-.04-.04h0s-5.84-5.84-5.84-5.84l-.03-.03v-17.67l5.8-5.8h20.64c1.63,0,2.94,1.31,2.94,2.94s-1.31,2.94-2.94,2.94h-18.22l-2.35,2.35v12.8l2.47,2.47h18.1c1.63,0,2.94,1.31,2.94,2.94Z"/>
  </g>
  <g>
    <polygon class="cls-2" points="180.38 53.09 180.38 76.39 120.38 117.54 120.38 89.31 161.16 64.32 120.38 39.33 120.38 11.93 179.96 52.8 180.38 53.09"/>
    <polygon class="cls-3" points="60.49 39.27 19.08 64.66 60.49 90.04 60.49 117.93 .5 76.78 .5 53.54 .71 53.4 60.49 12.38 60.49 39.27"/>
    <polygon class="cls-3" points="113.81 1.32 89.79 106.73 84.02 132.06 65.57 132.06 89.79 25.77 95.36 1.32 113.81 1.32"/>
    <polygon class="cls-3" points="114.91 .5 90.89 105.91 85.12 131.24 66.67 131.24 90.89 24.95 96.46 .5 114.91 .5"/>
  </g>
  <g>
    <line class="cls-1" x1="200.2" y1="132.06" x2="200.2" y2="1.32"/>
    <path class="cls-1" d="m200.2,132.06c-1.37-43.57-1.38-87.17,0-130.74,1.38,43.57,1.37,87.17,0,130.74h0Z"/>
  </g>
  <g>
    <g>
      <g>
        <path class="cls-3" d="m218.01,84.08h6.6v-19.79h-6.6v-2.83h16.02v2.83h-6.6v19.79h6.6v2.83h-16.02v-2.83Z"/>
        <path class="cls-3" d="m241.58,68.06h2.59l.27,2.83h.28c2.01-2.1,4.21-3.73,7.21-3.73,4.53,0,6.62,2.7,6.62,7.77v11.98h-3.77v-11.46c0-3.62-1.26-5.32-4.36-5.32-2.28,0-3.81,1.14-6.01,3.43v13.35h-2.83v-18.85Z"/>
        <path class="cls-3" d="m265.14,68.06h2.48l.27,2.83h.38c2.01-2.1,4.21-3.73,7.21-3.73,4.53,0,6.62,2.7,6.62,7.77v11.98h-3.77v-11.46c0-3.62-1.26-5.32-4.36-5.32-2.28,0-3.81,1.14-6.01,3.43v13.35h-2.83v-18.85Z"/>
        <path class="cls-3" d="m287.14,77.76c0-6.42,4.38-10.08,9.38-10.08s9.39,3.66,9.39,10.08-4.38,10-9.39,10-9.38-3.66-9.38-10Zm15.45,0c0-4.41-2.42-7.36-6.06-7.36s-6.06,2.95-6.06,7.36,2.42,7.28,6.06,7.28,6.06-2.91,6.06-7.28Z"/>
        <path class="cls-3" d="m310.35,68.06h2.99l4.5,11.13c.76,1.98,1.49,3.93,2.17,5.83h.16c.68-1.9,1.33-3.85,2.13-5.83l4.5-11.13h2.8l-7.78,18.85h-3.58l-7.9-18.85Z"/>
        <path class="cls-3" d="m333.31,82.45c0-4.67,4.34-6.94,15.02-7.8-.13-2.83-1.49-5.23-5.49-5.23-2.68,0-5.32,1.29-7.23,2.48l-1.4-2.4c2.13-1.37,5.62-3,9.23-3,5.66,0,8.42,3.38,8.42,8.57v12.77h-2.93l-.3-2.83h-.13c-2.25,1.8-5.23,3.34-8.13,3.34-3.87,0-7.06-2.18-7.06-5.91Zm15.72-.16v-4.96c-8.13.63-10.6,2.24-10.6,4.77,0,2.17,1.96,3.03,4.15,3.03s4.26-1.02,6.45-2.84Z"/>
        <path class="cls-3" d="m363.17,79.85v-8.96h-5.66v-2.36l5.41-.19.42-5.93h2.65v5.66h9.43v2.83h-9.43v9c.48,3.43,1.61,5.2,5.29,5.2,1.76,0,3.17-.35,4.54-.87l.7,2.4c-1.72.63-3.56,1.14-5.94,1.14-5.55,0-7.35-3.19-7.41-7.91Z"/>
        <path class="cls-3" d="m391.44,70.88h-9.43v-2.83h12.25v19.79h-2.83v-16.97Zm-1.78-9.27c0-1.5,1.09-2.52,2.58-2.52s2.58,1.02,2.58,2.52-1.1,2.52-2.58,2.52-2.58-.98-2.58-2.52Z"/>
        <path class="cls-3" d="m404.44,77.76c0-6.42,4.38-10.08,9.38-10.08s9.39,3.66,9.39,10.08-4.38,10-9.39,10-9.38-3.66-9.38-10Zm15.45,0c0-4.41-2.42-7.36-6.06-7.36s-6.06,2.95-6.06,7.36,2.42,7.28,6.06,7.28,6.06-2.91,6.06-7.28Z"/>
        <path class="cls-3" d="m429.15,68.06h2.7l.27,2.83h.16c2.01-2.1,4.21-3.73,7.21-3.73,4.53,0,6.62,2.7,6.62,7.77v11.98h-3.77v-11.46c0-3.62-1.26-5.32-4.36-5.32-2.28,0-3.81,1.14-6.01,3.43v13.35h-2.83v-18.85Z"/>
      </g>
      <g>
        <path class="cls-3" d="m217.55,119.28l1.96-2.28c1.96,1.93,4.62,3.19,7.51,3.19,3.52,0,5.55-1.69,5.55-4.06,0-2.76-1.99-3.54-4.57-4.65l-3.71-1.65c-2.54-1.02-5.51-2.84-5.51-6.65s3.52-6.85,8.41-6.85c3.21,0,6.02,1.3,7.9,3.19l-1.72,2.13c-1.68-1.5-3.64-2.4-6.3-2.4-2.97,0-4.97,1.42-4.97,3.74,0,2.48,2.39,3.39,4.58,4.25l3.6,1.61c3.17,1.26,5.67,3.07,5.67,6.89,0,4.1-3.44,7.36-9.07,7.36-3.75,0-7-1.5-9.31-3.82Z"/>
        <path class="cls-3" d="m246.29,115.19v-9.43h-4.71v-2.36l5.41-.19.42-5.93h2.65v5.66h9.43v2.83h-10.37v9.47c.57,3.43,1.71,5.2,5.38,5.2,1.76,0,3.17-.35,4.54-.87l.7,2.4c-1.72.63-3.56,1.14-5.94,1.14-5.55,0-7.35-3.19-7.51-7.91Z"/>
        <path class="cls-3" d="m265.14,115.38v-11.51h2.83v11.46c0,3.58,1.26,5.32,4.42,5.32,2.21,0,3.82-1.02,5.95-3.5v-13.27h2.83v18.85h-2.22l-.27-3.77h-.16c-1.92,2.57-4.15,4.15-7.08,4.15-4.5,0-6.29-7.72-6.29-7.72Z"/>
        <path class="cls-3" d="m287.45,112.68c0-6.4,4.23-10.38,8.86-10.38,2.33,0,4.15.93,5.88,2.51h-.13l-.15-2.86v-7.51h2.83v28.28h-2.25l-.27-2.83h.09c-1.61,1.66-3.94,3.08-6.4,3.08-5.07,0-8.45-3.73-8.45-10.3Zm14.46,4.83v-9.53c-1.72-1.61-3.32-2.2-4.97-2.2-3.29,0-5.94,2.91-5.94,7.28s2.11,7.29,5.59,7.29c1.88,0,3.64-.95,5.32-2.84Z"/>
        <path class="cls-3" d="m321.69,105.76h-9.43v-2.83h12.25v19.79h-2.83v-16.97Zm-1.89-8.8c0-1.5,1.09-2.52,2.58-2.52s2.58,1.02,2.58,2.52-1.1,2.52-2.58,2.52-2.58-.98-2.58-2.52Z"/>
        <path class="cls-3" d="m334.58,113.1c0-6.42,4.38-10.08,9.38-10.08s9.39,3.66,9.39,10.08-4.38,10-9.39,10-9.38-3.66-9.38-10Zm15.45,0c0-4.41-2.42-7.36-6.06-7.36s-6.06,2.95-6.06,7.36,2.42,7.28,6.06,7.28,6.06-2.91,6.06-7.28Z"/>
        <path class="cls-3" d="m358.47,120.11l1.49-2.17c2.19,1.57,4.77,2.6,8.25,2.6,3.21,0,4.77-1.34,4.77-2.95,0-1.46-.74-2.48-5.9-3.54-4.97-1.02-7.43-2.72-7.43-5.59,0-3.07,2.7-5.43,7.9-5.43,2.89,0,5.79,1.14,7.66,2.44l-1.56,2.09c-1.76-1.22-3.95-2.01-6.37-2.01-3.21,0-4.38,1.3-4.38,2.76,0,1.65,1.64,2.36,5.55,3.19,6.3,1.38,7.82,2.95,7.82,5.91,0,3.11-3.01,5.71-8.45,5.71-3.71,0-7.04-1.38-9.35-2.99Z"/>
      </g>
    </g>
    <g>
      <g>
        <path class="cls-3" d="m218.49,83.67h6.6v-19.79h-6.6v-2.83h16.02v2.83h-6.6v19.79h6.6v2.83h-16.02v-2.83Z"/>
        <path class="cls-3" d="m242.05,67.65h2.59l.27,2.83h.28c2.01-2.1,4.21-3.73,7.21-3.73,4.53,0,6.62,2.7,6.62,7.77v11.98h-3.77v-11.46c0-3.62-1.26-5.32-4.36-5.32-2.28,0-3.81,1.14-6.01,3.43v13.35h-2.83v-18.85Z"/>
        <path class="cls-3" d="m265.61,67.65h2.48l.27,2.83h.38c2.01-2.1,4.21-3.73,7.21-3.73,4.53,0,6.62,2.7,6.62,7.77v11.98h-3.77v-11.46c0-3.62-1.26-5.32-4.36-5.32-2.28,0-3.81,1.14-6.01,3.43v13.35h-2.83v-18.85Z"/>
        <path class="cls-3" d="m287.61,77.35c0-6.42,4.38-10.08,9.38-10.08s9.39,3.66,9.39,10.08-4.38,10-9.39,10-9.38-3.66-9.38-10Zm15.45,0c0-4.41-2.42-7.36-6.06-7.36s-6.06,2.95-6.06,7.36,2.42,7.28,6.06,7.28,6.06-2.91,6.06-7.28Z"/>
        <path class="cls-3" d="m310.82,67.65h2.99l4.5,11.13c.76,1.98,1.49,3.93,2.17,5.83h.16c.68-1.9,1.33-3.85,2.13-5.83l4.5-11.13h2.8l-7.78,18.85h-3.58l-7.9-18.85Z"/>
        <path class="cls-3" d="m333.78,82.05c0-4.67,4.34-6.94,15.02-7.8-.13-2.83-1.49-5.23-5.49-5.23-2.68,0-5.32,1.29-7.23,2.48l-1.4-2.4c2.13-1.37,5.62-3,9.23-3,5.66,0,8.42,3.38,8.42,8.57v12.77h-2.93l-.3-2.83h-.13c-2.25,1.8-5.23,3.34-8.13,3.34-3.87,0-7.06-2.18-7.06-5.91Zm15.72-.16v-4.96c-8.13.63-10.6,2.24-10.6,4.77,0,2.17,1.96,3.03,4.15,3.03s4.26-1.02,6.45-2.84Z"/>
        <path class="cls-3" d="m363.64,79.44v-8.96h-5.66v-2.36l5.41-.19.42-5.93h2.65v5.66h9.43v2.83h-9.43v9c.48,3.43,1.61,5.2,5.29,5.2,1.76,0,3.17-.35,4.54-.87l.7,2.4c-1.72.63-3.56,1.14-5.94,1.14-5.55,0-7.35-3.19-7.41-7.91Z"/>
        <path class="cls-3" d="m391.91,70.48h-9.43v-2.83h12.25v19.79h-2.83v-16.97Zm-1.78-9.27c0-1.5,1.09-2.52,2.58-2.52s2.58,1.02,2.58,2.52-1.1,2.52-2.58,2.52-2.58-.98-2.58-2.52Z"/>
        <path class="cls-3" d="m404.91,77.35c0-6.42,4.38-10.08,9.38-10.08s9.39,3.66,9.39,10.08-4.38,10-9.39,10-9.38-3.66-9.38-10Zm15.45,0c0-4.41-2.42-7.36-6.06-7.36s-6.06,2.95-6.06,7.36,2.42,7.28,6.06,7.28,6.06-2.91,6.06-7.28Z"/>
        <path class="cls-3" d="m429.62,67.65h2.7l.27,2.83h.16c2.01-2.1,4.21-3.73,7.21-3.73,4.53,0,6.62,2.7,6.62,7.77v11.98h-3.77v-11.46c0-3.62-1.26-5.32-4.36-5.32-2.28,0-3.81,1.14-6.01,3.43v13.35h-2.83v-18.85Z"/>
      </g>
      <g>
        <path class="cls-3" d="m218.02,118.88l1.96-2.28c1.96,1.93,4.62,3.19,7.51,3.19,3.52,0,5.55-1.69,5.55-4.06,0-2.76-1.99-3.54-4.57-4.65l-3.71-1.65c-2.54-1.02-5.51-2.84-5.51-6.65s3.52-6.85,8.41-6.85c3.21,0,6.02,1.3,7.9,3.19l-1.72,2.13c-1.68-1.5-3.64-2.4-6.3-2.4-2.97,0-4.97,1.42-4.97,3.74,0,2.48,2.39,3.39,4.58,4.25l3.6,1.61c3.17,1.26,5.67,3.07,5.67,6.89,0,4.1-3.44,7.36-9.07,7.36-3.75,0-7-1.5-9.31-3.82Z"/>
        <path class="cls-3" d="m246.76,114.78v-9.43h-4.71v-2.36l5.41-.19.42-5.93h2.65v5.66h9.43v2.83h-10.37v9.47c.57,3.43,1.71,5.2,5.38,5.2,1.76,0,3.17-.35,4.54-.87l.7,2.4c-1.72.63-3.56,1.14-5.94,1.14-5.55,0-7.35-3.19-7.51-7.91Z"/>
        <path class="cls-3" d="m265.61,114.98v-11.51h2.83v11.46c0,3.58,1.26,5.32,4.42,5.32,2.21,0,3.82-1.02,5.95-3.5v-13.27h2.83v18.85h-2.22l-.27-3.77h-.16c-1.92,2.57-4.15,4.15-7.08,4.15-4.5,0-6.29-7.72-6.29-7.72Z"/>
        <path class="cls-3" d="m287.92,112.27c0-6.4,4.23-10.38,8.86-10.38,2.33,0,4.15.93,5.88,2.51h-.13l-.15-2.86v-7.51h2.83v28.28h-2.25l-.27-2.83h.09c-1.61,1.66-3.94,3.08-6.4,3.08-5.07,0-8.45-3.73-8.45-10.3Zm14.46,4.83v-9.53c-1.72-1.61-3.32-2.2-4.97-2.2-3.29,0-5.94,2.91-5.94,7.28s2.11,7.29,5.59,7.29c1.88,0,3.64-.95,5.32-2.84Z"/>
        <path class="cls-3" d="m322.17,105.35h-9.43v-2.83h12.25v19.79h-2.83v-16.97Zm-1.89-8.8c0-1.5,1.09-2.52,2.58-2.52s2.58,1.02,2.58,2.52-1.1,2.52-2.58,2.52-2.58-.98-2.58-2.52Z"/>
        <path class="cls-3" d="m335.05,112.69c0-6.42,4.38-10.08,9.38-10.08s9.39,3.66,9.39,10.08-4.38,10-9.39,10-9.38-3.66-9.38-10Zm15.45,0c0-4.41-2.42-7.36-6.06-7.36s-6.06,2.95-6.06,7.36,2.42,7.28,6.06,7.28,6.06-2.91,6.06-7.28Z"/>
        <path class="cls-3" d="m358.94,119.7l1.49-2.17c2.19,1.57,4.77,2.6,8.25,2.6,3.21,0,4.77-1.34,4.77-2.95,0-1.46-.74-2.48-5.9-3.54-4.97-1.02-7.43-2.72-7.43-5.59,0-3.07,2.7-5.43,7.9-5.43,2.89,0,5.79,1.14,7.66,2.44l-1.56,2.09c-1.76-1.22-3.95-2.01-6.37-2.01-3.21,0-4.38,1.3-4.38,2.76,0,1.65,1.64,2.36,5.55,3.19,6.3,1.38,7.82,2.95,7.82,5.91,0,3.11-3.01,5.71-8.45,5.71-3.71,0-7.04-1.38-9.35-2.99Z"/>
      </g>
    </g>
  </g>
</svg>