<svg enable-background="new 0 0 128 128" height="128" viewBox="0 0 128 128" width="128" xmlns="http://www.w3.org/2000/svg"><g fill="#282d33"><path d="m123.992 117.977h-69.576v-4.008h59.786l-21.686-21.323 2.81-2.856zm-77.433 0h-42.551v-117.977l26.811 26.362-2.81 2.858-19.994-19.66v104.409h38.544zm18.504-20.49h-40.215v-43.237h4.007v39.23h36.208z"/><path d="m6.011 107.161h9.231v4.007h-9.231z"/><path d="m6.011 98.312h5.309v4.007h-5.309z"/><path d="m6.011 89.461h9.231v4.007h-9.231z"/><path d="m6.011 80.61h5.309v4.008h-5.309z"/><path d="m6.011 71.761h9.231v4.008h-9.231z"/><path d="m6.011 62.909h5.309v4.007h-5.309z"/><path d="m6.011 54.061h9.231v4.007h-9.231z"/><path d="m6.011 45.21h5.309v4.007h-5.309z"/><path d="m6.011 36.359h9.231v4.007h-9.231z"/><path d="m6.011 27.511h5.309v4.007h-5.309z"/><path d="m6.011 18.661h9.231v4.007h-9.231z"/><path d="m79.375 124.959-10.154-18.358v-3.325h4.007v2.289l6.147 11.116 6.149-11.116v-2.289h4.008v3.325z"/><path d="m90.357 107.498h-21.96v-76.489h4.007v72.481h13.947v-72.481h4.006z"/><path d="m77.371 29.03h4.008v68.304h-4.008z"/><path d="m89.544 11.066h-4.008v-3.457l-12.318-.006v3.463h-4.007v-4.028c0-.992.465-1.934 1.277-2.583.691-.554 1.588-.859 2.521-.859h.004l12.732-.001c2.095 0 3.798 1.545 3.798 3.444v4.027z"/><path d="m90.357 30.875h-21.96v-16.379h21.96zm-17.953-4.008h13.946v-8.364h-13.946z"/><path d="m49.043 119.651h4.007v8.349h-4.007z"/><path d="m59.224 12.86h-4.007v-5.257h-8.561v5.257h-4.008v-9.264h16.576z"/><path d="m42.381 97.698v-37.115h4.007v33.107l9.035-.001.002-33.106h4.007l-.002 37.114z"/><path d="m56.587 122.731h-11.368v-8.901h4.007v4.895h3.354v-4.895h4.007z"/><path d="m60.861 61.64h-19.847v-50.432h19.848v50.432zm-15.84-4.007h11.833v-42.417h-11.833z"/><path d="m33.326 62.499-.003-41.806 25.499.003v4.007l-21.492-.003.003 37.799z"/><path d="m58.611 115.438h-15.415v-21.489h15.415zm-11.407-4.007h7.4v-13.475h-7.4z"/></g></svg>