<svg enable-background="new 0 0 128 128" height="128" viewBox="0 0 128 128" width="128" xmlns="http://www.w3.org/2000/svg"><g fill="#282d33"><path d="m44.876 120.575c-24.731 0-44.852-20.328-44.852-45.315 0-24.988 20.121-45.317 44.852-45.317v4c-22.526 0-40.852 18.535-40.852 41.317 0 22.781 18.326 41.315 40.852 41.315 17.986 0 33.663-11.658 39.01-29.011l3.822 1.178c-5.866 19.04-23.079 31.833-42.832 31.833z"/><path d="m53.604 34.847c-2.845-.624-5.778-.941-8.715-.941v-4c3.226 0 6.446.349 9.573 1.034z"/><path d="m44.889 120.61c-15.034 0-26.811-19.922-26.811-45.354 0-25.431 11.777-45.352 26.811-45.352v4c-12.578 0-22.811 18.551-22.811 41.352 0 22.803 10.233 41.354 22.811 41.354 11.08 0 20.759-14.986 22.515-34.86l3.984.352c-1.971 22.313-13.116 38.508-26.499 38.508z"/><path d="m42.888 31.905h4v86.703h-4z"/><path d="m84.982 92.537h-81.585l-.485-1.303c-1.932-5.193-2.912-10.568-2.912-15.977 0-5.417.982-10.794 2.918-15.983l.486-1.301h52.352v4h-49.552c-1.463 4.334-2.204 8.797-2.204 13.284 0 4.481.739 8.941 2.2 13.28h78.782z"/><path d="m95.591 85.718h-14.003l-.825-9.991c-2.515-.742-4.909-1.808-7.146-3.182l-7.304 6.246-9.881-9.994 6.397-7.648c-1.264-2.327-2.213-4.802-2.833-7.389l-9.53-.803v-14.108l9.883-.834c.738-2.555 1.797-4.983 3.163-7.25l-6.172-7.375 9.887-9.992 7.573 6.479c2.296-1.271 4.734-2.225 7.281-2.851l.794-9.636h14.005l.824 9.994c2.515.741 4.908 1.807 7.146 3.182l7.302-6.246 9.886 9.994-6.401 7.646c1.263 2.329 2.213 4.806 2.834 7.392l9.529.8v14.109l-9.882.832c-.736 2.553-1.796 4.981-3.164 7.252l6.173 7.373-9.886 9.993-7.576-6.478c-2.294 1.269-4.732 2.223-7.279 2.849zm-10.32-4h6.636l.738-8.948 1.49-.287c3.094-.596 6.02-1.737 8.695-3.394l1.242-.769 6.939 5.935 4.71-4.761-5.74-6.855.838-1.248c1.771-2.632 3.042-5.537 3.778-8.634l.335-1.409 9.068-.764v-6.754l-8.856-.745-.282-1.495c-.591-3.135-1.723-6.1-3.363-8.811l-.74-1.224 5.877-7.019-4.708-4.76-6.778 5.798-1.266-.869c-2.602-1.788-5.471-3.07-8.527-3.812l-1.403-.341-.755-9.164h-6.639l-.737 8.951-1.491.287c-3.093.593-6.018 1.735-8.694 3.394l-1.243.77-6.939-5.936-4.709 4.759 5.739 6.857-.838 1.248c-1.767 2.627-3.037 5.531-3.777 8.633l-.335 1.407-9.067.766v6.755l8.86.746.281 1.496c.588 3.134 1.719 6.096 3.361 8.803l.742 1.223-5.876 7.024 4.707 4.76 6.778-5.796 1.266.869c2.599 1.786 5.468 3.068 8.526 3.812l1.402.341z"/><path d="m89.234 63.956c-9.504 0-17.235-7.807-17.235-17.401 0-9.596 7.731-17.402 17.235-17.402 9.503 0 17.234 7.807 17.234 17.402.001 9.594-7.731 17.401-17.234 17.401zm0-30.804c-7.298 0-13.235 6.012-13.235 13.402s5.938 13.401 13.235 13.401 13.234-6.012 13.234-13.401c.001-7.39-5.936-13.402-13.234-13.402z"/></g></svg>